<svg xmlns="http://www.w3.org/2000/svg" xmlns:xlink="http://www.w3.org/1999/xlink" width="556.987" height="384.503" viewBox="0 0 556.987 384.503"><defs><linearGradient id="a" y1="0.5" x2="1" y2="0.5" gradientUnits="objectBoundingBox"><stop offset="0" stop-color="gray" stop-opacity="0.251"/><stop offset="0.54" stop-color="gray" stop-opacity="0.122"/><stop offset="1" stop-color="gray" stop-opacity="0.102"/></linearGradient></defs><g transform="translate(-193.013 -620.249)"><path d="M331.957,99.809c-35.7.048-70.067-10.073-102.936-21.316S163.534,54.659,128.5,49.324C105.962,45.9,80.338,46.21,62.723,58.662c-16.955,11.979-21.865,31.8-24.234,50.121-1.782,13.779-2.6,28.242,4.069,40.846,4.633,8.75,12.561,15.962,18.149,24.3C80.214,202.941,68.483,240,49.527,269.683c-8.888,13.927-19.3,27.277-26.021,42s-9.476,31.422-2.622,45.956c6.792,14.4,22.133,24.86,38.6,32,33.433,14.529,72.359,17.643,110.239,18.842,83.851,2.66,167.864-2.765,251.652-8.191,31.007-2.006,62.152-4.026,92.52-9.839,16.86-3.224,34.221-8.01,46.176-18.5,15.174-13.316,18.279-35.057,7.236-50.685-18.517-26.212-67.344-31.155-80.622-59.516-7.322-15.613-1.008-33.519,8.292-48.569,19.945-32.292,54.276-61.216,54.854-97.334.4-24.8-17.457-49-44.122-59.779-27.95-11.291-66.059-8.387-85.642,12.657C399.927,90.409,363.48,99.775,331.957,99.809Z" transform="translate(176.103 572.794)" fill="#030314" opacity="0.1"/><path d="M996.657,690.515s-5.87-3.874-11.687-1.118c0,0,1.791,3.448,9.156,3.124Z" transform="translate(-329.594 237.972)" fill="#485364"/><path d="M1006.745,693.25s1.786,6.8-2.694,11.429c0,0-2.694-2.8,0-9.672Z" transform="translate(-338.936 235.443)" fill="#485364"/><path d="M1011.518,674.927s-.435-5.784-13.5-3.864c0,0-.062,3.73,4.523,5.5S1009.23,676.837,1011.518,674.927Z" transform="translate(-336.411 247.237)" fill="#485364"/><path d="M1023.811,679.5s5.521,1.772.6,14.023c0,0-3.644-.812-4.3-5.688S1021.394,681.277,1023.811,679.5Z" transform="translate(-347.883 242.625)" fill="#485364"/><path d="M1029.637,652.9s.75-9.519-12.6-8.545c0,0-.955,8.6,10.245,10.832Z" transform="translate(-346.334 261.022)" fill="#485364"/><path d="M1045.314,630.881s-1.83-10.789-15.174-7.575c0,0-.048,9.328,13,10.145Z" transform="translate(-353.189 272.293)" fill="#485364"/><path d="M1057.6,607.863s-3.066-10.508-16.287-7.365c0,0,3.147,9.452,15.408,9.3Z" transform="translate(-359.024 284.201)" fill="#485364"/><path d="M1070.991,584.816s-2.995-10.9-15.762-7.642c0,0,4.261,10.359,14.916,9.485Z" transform="translate(-366.296 296.397)" fill="#485364"/><path d="M1080.954,560.437s-2.3-13.335-14.2-10.383c0,0,3.458,12.131,13.33,12.327Z" transform="translate(-372.314 310.469)" fill="#485364"/><path d="M1088.046,534.97s-2.765-13.44-14.806-9.552c0,0,4.719,12.7,13.951,11.391Z" transform="translate(-375.704 323.484)" fill="#485364"/><path d="M1094.018,507.614s-4.389-13.445-13.7-13.082c0,0,4.485,14.2,12.92,15.761Z" transform="translate(-379.402 339.253)" fill="#485364"/><path d="M1098.571,481.84s-4.776-16.182-12.351-14.935c0,0,3.305,12.37,12.084,17.457Z" transform="translate(-382.485 353.717)" fill="#485364"/><path d="M1100.76,454.663s-4.48-13.483-11.94-14.023c0,0,3.047,13.268,11.792,17.529Z" transform="translate(-383.843 367.401)" fill="#485364"/><path d="M1104.218,428.543s-5.583-13.5-10.508-13.8c0,0,2.426,13.292,10.03,16.019Z" transform="translate(-386.397 380.931)" fill="#485364"/><path d="M1107.848,401.756s-3.434-14.658-8.368-15.876c0,0,.673,11.993,7.871,16.975Z" transform="translate(-389.412 396.007)" fill="#485364"/><path d="M1112.578,372.269s-3.611-11.687-7.608-13.469c0,0,.788,13.779,6.687,16.325Z" transform="translate(-392.279 410.153)" fill="#485364"/><path d="M1120.843,343.464l.726-20.6s-7.475,15.532-1.266,24.22Z" transform="translate(-399.001 428.927)" fill="#485364"/><path d="M1133.03,305.716s5.383-15.045,6.687-15.886c0,0-10.556,9.763-9.524,22.319Z" transform="translate(-405.418 446.182)" fill="#485364"/><path d="M1041.834,662.137s9.466-1.237,9.184,12.141c0,0-8.554,1.395-11.348-9.672Z" transform="translate(-358.167 251.711)" fill="#485364"/><path d="M1060.463,639.06s10.937-.033,10.03,13.66c0,0-9.185,1.643-12.213-11.071Z" transform="translate(-367.889 263.75)" fill="#485364"/><path d="M1074.669,617.439s9.93-4.657,16.282,7.365c0,0-9.17,3.878-17.161-5.421Z" transform="translate(-375.992 275.508)" fill="#485364"/><path d="M1087.771,592.916s10.169-4.953,16.139,6.787c0,0-10.594,3.649-16.979-4.929Z" transform="translate(-382.855 288.397)" fill="#485364"/><path d="M1095.729,568.36s9.786-9.347,17.6.105c0,0-10,7.694-18.044,1.977Z" transform="translate(-387.218 302.837)" fill="#485364"/><path d="M1102.693,541.016s9.844-9.552,17.591.439c0,0-11.047,7.847-17.944,1.567Z" transform="translate(-390.905 317.118)" fill="#485364"/><path d="M1106.93,510.561s7.585-11.94,16.516-9.275c0,0-7.871,12.643-16.43,12.079Z" transform="translate(-393.303 335.924)" fill="#485364"/><path d="M1111.4,484.173s7.642-15.035,14.873-12.418c0,0-5.512,11.558-15.069,14.954Z" transform="translate(-395.534 351.307)" fill="#485364"/><path d="M1111.885,456.864s7.856-11.835,15.217-10.388c0,0-6.424,12-15.981,13.813Z" transform="translate(-395.492 364.417)" fill="#485364"/><path d="M1114,428.463s6.09-13.283,11.038-13.373c0,0-2.923,13.187-10.627,15.628Z" transform="translate(-396.996 380.748)" fill="#485364"/><path d="M1116.5,403.778s6.768-13.45,11.854-13.478c0,0-3.463,11.5-11.63,14.658Z" transform="translate(-398.303 393.698)" fill="#485364"/><path d="M1118.63,375.21s5.063-11.129,9.256-12.389c0,0-2.531,13.564-8.7,15.341Z" transform="translate(-399.415 408.053)" fill="#485364"/><path d="M1123.583,346.3,1134.9,329.06s-2.9,17-12.967,20.538Z" transform="translate(-401.139 425.689)" fill="#485364"/><path d="M1135.658,314.471s13.149-9.075,13.626-10.541c0,0-6.687,12.709-19.1,14.954Z" transform="translate(-405.449 438.816)" fill="#485364"/><path d="M1142.9,301.59s15.1-14.515,18.952-14.5c0,0-12.451.568-19.315,13.727Z" transform="translate(-411.905 447.613)" fill="#485364"/><path d="M1118.94,352.357l.549.072c2.837-22.2,6.973-35.344,11.644-36.953l-.181-.525C1126,316.669,1121.834,329.608,1118.94,352.357Z" transform="translate(-399.577 433.06)" fill="#485364"/><path d="M1110.2,444.569l.831.067c.177-2.073.31-4.193.4-6.309.793-18.379,2.02-35.258,3.635-47.91l-.478-.6c-1.619,12.681-3.2,30.066-3.988,48.473C1110.51,440.4,1110.377,442.506,1110.2,444.569Z" transform="translate(-395.011 393.949)" fill="#444053"/><path d="M976.509,603.278c.143-.062,14.773-6.6,29.956-22.176a120.471,120.471,0,0,0,21.9-31.045c7.021-14.3,11.3-31.862,12.733-48.927l-.865.406c-3.224,38.3-20.662,64.478-34.527,78.735-15.036,15.441-29.5,21.908-29.646,21.97Z" transform="translate(-324.939 335.803)" fill="#485364"/><path d="M549.893,132.69H90.958a4.088,4.088,0,0,0-4.088,4.088V148.69H553.981V136.778A4.088,4.088,0,0,0,549.893,132.69Z" transform="translate(139.558 528.269)" fill="#3f3d56"/><path d="M86.87,166.19V434.249a8.244,8.244,0,0,0,8.244,8.244H545.737a8.244,8.244,0,0,0,8.244-8.244V166.19Z" transform="translate(139.558 510.769)" fill="#fff"/><circle cx="1.91" cy="1.91" r="1.91" transform="translate(231.915 666.929)" fill="#fa5959" opacity="0.8"/><circle cx="1.91" cy="1.91" r="1.91" transform="translate(237.169 666.929)" fill="#fed253" opacity="0.8"/><circle cx="1.91" cy="1.91" r="1.91" transform="translate(242.423 666.929)" fill="#8ccf4d" opacity="0.8"/><rect width="375.408" height="165.075" transform="translate(269.848 721.655)" opacity="0.05"/><rect width="369.677" height="161.435" transform="translate(272.713 722.906)" fill="#3f3d56"/><path d="M354.557,349.38a36.777,36.777,0,1,0,36.777,36.777,36.777,36.777,0,0,0-36.777-36.777Zm6.6,37.66v17.414h-13V387.04a10.77,10.77,0,1,1,13,0Z" transform="translate(18.934 415.074)" fill="#706fd3"/><path d="M354.557,349.38a36.777,36.777,0,1,0,36.777,36.777,36.777,36.777,0,0,0-36.777-36.777Zm6.6,37.66v17.414h-13V387.04a10.77,10.77,0,1,1,13,0Z" transform="translate(18.934 415.074)" opacity="0.05"/><path d="M343.064,327.38a47.284,47.284,0,1,0,47.284,47.284,47.284,47.284,0,0,0-47.284-47.284Zm8.478,48.421v22.386H334.825V375.8a13.851,13.851,0,1,1,16.717,0Z" transform="translate(30.427 426.566)" fill="#2980b9"/><rect width="152.838" height="16.239" transform="translate(440.357 795.026)" fill="#fff"/><rect width="32.956" height="16.239" transform="translate(560.24 824.639)" fill="#2980b9"/><path d="M558.706,426.223H555.94l2.46-2.455a.244.244,0,0,0,0-.339.239.239,0,0,0-.339,0l-2.46,2.46v-2.77a.239.239,0,0,0-.239-.239.243.243,0,0,0-.239.239v2.77l-2.455-2.474a.239.239,0,0,0-.339,0,.244.244,0,0,0,0,.339l2.46,2.455h-2.77a.244.244,0,0,0-.239.239.239.239,0,0,0,.239.239h2.77l-2.46,2.46a.244.244,0,0,0,0,.339.248.248,0,0,0,.339,0l2.455-2.46v2.765a.239.239,0,1,0,.478,0v-2.765l2.46,2.46a.248.248,0,0,0,.339,0,.244.244,0,0,0,0-.339l-2.46-2.46h2.765a.232.232,0,1,0,0-.463Z" transform="translate(-103.303 376.679)" fill="#2980b9"/><path d="M579.706,426.223H576.94l2.46-2.455a.244.244,0,0,0,0-.339.239.239,0,0,0-.339,0l-2.46,2.46v-2.77a.239.239,0,0,0-.239-.239.243.243,0,0,0-.239.239v2.77l-2.455-2.474a.239.239,0,0,0-.339,0,.244.244,0,0,0,0,.339l2.46,2.455h-2.77a.244.244,0,0,0-.239.239.239.239,0,0,0,.239.239h2.77l-2.46,2.46a.244.244,0,0,0,0,.339.248.248,0,0,0,.339,0l2.455-2.46v2.765a.239.239,0,1,0,.478,0v-2.765l2.46,2.46a.248.248,0,0,0,.339,0,.244.244,0,0,0,0-.339l-2.46-2.46h2.765a.232.232,0,1,0,0-.463Z" transform="translate(-114.273 376.679)" fill="#2980b9"/><path d="M600.705,426.223H597.94l2.46-2.455a.244.244,0,0,0,0-.339.239.239,0,0,0-.339,0l-2.46,2.46v-2.77a.239.239,0,0,0-.239-.239.243.243,0,0,0-.239.239v2.77l-2.455-2.474a.239.239,0,0,0-.339,0,.244.244,0,0,0,0,.339l2.46,2.455h-2.77a.244.244,0,0,0-.239.239.239.239,0,0,0,.239.239h2.77l-2.46,2.46a.244.244,0,0,0,0,.339.248.248,0,0,0,.339,0l2.455-2.46v2.765a.239.239,0,1,0,.478,0v-2.765l2.46,2.46a.249.249,0,0,0,.339,0,.244.244,0,0,0,0-.339l-2.46-2.46h2.765a.232.232,0,1,0,0-.463Z" transform="translate(-125.243 376.679)" fill="#2980b9"/><path d="M621.706,426.223H618.94l2.46-2.455a.244.244,0,0,0,0-.339.239.239,0,0,0-.339,0l-2.46,2.46v-2.77a.239.239,0,0,0-.239-.239.243.243,0,0,0-.239.239v2.77l-2.455-2.474a.239.239,0,0,0-.339,0,.244.244,0,0,0,0,.339l2.46,2.455h-2.77a.244.244,0,0,0-.239.239.239.239,0,0,0,.239.239h2.77l-2.46,2.46a.244.244,0,0,0,0,.339.248.248,0,0,0,.339,0l2.455-2.46v2.765a.239.239,0,1,0,.478,0v-2.765l2.46,2.46a.248.248,0,0,0,.339,0,.244.244,0,0,0,0-.339l-2.46-2.46h2.765a.232.232,0,1,0,0-.463Z" transform="translate(-136.213 376.679)" fill="#2980b9"/><path d="M642.706,426.223H639.94l2.46-2.455a.244.244,0,0,0,0-.339.239.239,0,0,0-.339,0l-2.46,2.46v-2.77a.239.239,0,0,0-.239-.239.243.243,0,0,0-.239.239v2.77l-2.455-2.474a.239.239,0,0,0-.339,0,.244.244,0,0,0,0,.339l2.46,2.455h-2.77a.244.244,0,0,0-.239.239.239.239,0,0,0,.239.239h2.77l-2.46,2.46a.244.244,0,0,0,0,.339.248.248,0,0,0,.339,0l2.455-2.46v2.765a.239.239,0,1,0,.478,0v-2.765l2.46,2.46a.248.248,0,0,0,.339,0,.244.244,0,0,0,0-.339l-2.46-2.46h2.766a.232.232,0,1,0,0-.463Z" transform="translate(-147.183 376.679)" fill="#2980b9"/><path d="M663.705,426.223H660.94l2.46-2.455a.244.244,0,0,0,0-.339.239.239,0,0,0-.339,0l-2.46,2.46v-2.77a.239.239,0,0,0-.239-.239.243.243,0,0,0-.239.239v2.77l-2.455-2.474a.239.239,0,0,0-.339,0,.244.244,0,0,0,0,.339l2.46,2.455h-2.77a.243.243,0,0,0-.239.239.239.239,0,0,0,.239.239h2.77l-2.46,2.46a.244.244,0,0,0,0,.339.248.248,0,0,0,.339,0l2.455-2.46v2.765a.239.239,0,1,0,.478,0v-2.765l2.46,2.46a.248.248,0,0,0,.339,0,.244.244,0,0,0,0-.339l-2.46-2.46h2.765a.232.232,0,1,0,0-.463Z" transform="translate(-158.153 376.679)" fill="#2980b9"/><path d="M684.706,426.223H681.94l2.46-2.455a.244.244,0,0,0,0-.339.239.239,0,0,0-.339,0l-2.46,2.46v-2.77a.239.239,0,0,0-.239-.239.243.243,0,0,0-.239.239v2.77l-2.455-2.474a.239.239,0,0,0-.339,0,.244.244,0,0,0,0,.339l2.46,2.455h-2.77a.243.243,0,0,0-.239.239.239.239,0,0,0,.239.239h2.77l-2.46,2.46a.244.244,0,0,0,0,.339.248.248,0,0,0,.339,0l2.455-2.46v2.765a.239.239,0,1,0,.478,0v-2.765l2.46,2.46a.249.249,0,0,0,.339,0,.244.244,0,0,0,0-.339l-2.46-2.46h2.765a.232.232,0,1,0,0-.463Z" transform="translate(-169.123 376.679)" fill="#2980b9"/><path d="M705.706,426.223H702.94l2.46-2.455a.244.244,0,0,0,0-.339.239.239,0,0,0-.339,0l-2.46,2.46v-2.77a.239.239,0,0,0-.239-.239.244.244,0,0,0-.239.239v2.77l-2.455-2.474a.239.239,0,0,0-.339,0,.243.243,0,0,0,0,.339l2.46,2.455h-2.77a.243.243,0,0,0-.239.239.239.239,0,0,0,.239.239h2.77l-2.46,2.46a.243.243,0,0,0,0,.339.248.248,0,0,0,.339,0l2.455-2.46v2.765a.239.239,0,0,0,.478,0v-2.765l2.46,2.46a.248.248,0,0,0,.339,0,.244.244,0,0,0,0-.339l-2.46-2.46h2.765a.232.232,0,1,0,0-.463Z" transform="translate(-180.093 376.679)" fill="#2980b9"/><path d="M726.706,426.223H723.94l2.46-2.455a.244.244,0,0,0,0-.339.239.239,0,0,0-.339,0l-2.46,2.46v-2.77a.239.239,0,0,0-.239-.239.243.243,0,0,0-.239.239v2.77l-2.455-2.474a.239.239,0,0,0-.339,0,.244.244,0,0,0,0,.339l2.46,2.455h-2.77a.244.244,0,0,0-.239.239.239.239,0,0,0,.239.239h2.77l-2.46,2.46a.244.244,0,0,0,0,.339.248.248,0,0,0,.339,0l2.455-2.46v2.765a.239.239,0,1,0,.478,0v-2.765l2.46,2.46a.248.248,0,0,0,.339,0,.244.244,0,0,0,0-.339l-2.46-2.46h2.765a.232.232,0,1,0,0-.463Z" transform="translate(-191.063 376.679)" fill="#2980b9"/><path d="M747.706,426.223H744.94l2.46-2.455a.244.244,0,0,0,0-.339.239.239,0,0,0-.339,0l-2.46,2.46v-2.77a.239.239,0,0,0-.239-.239.243.243,0,0,0-.239.239v2.77l-2.455-2.474a.239.239,0,0,0-.339,0,.243.243,0,0,0,0,.339l2.46,2.455h-2.77a.244.244,0,0,0-.239.239.239.239,0,0,0,.239.239h2.77l-2.46,2.46a.243.243,0,0,0,0,.339.248.248,0,0,0,.339,0l2.455-2.46v2.765a.239.239,0,1,0,.478,0v-2.765l2.46,2.46a.248.248,0,0,0,.339,0,.244.244,0,0,0,0-.339l-2.46-2.46h2.765a.232.232,0,1,0,0-.463Z" transform="translate(-202.033 376.679)" fill="#2980b9"/><path d="M768.706,426.223H765.94l2.46-2.455a.244.244,0,0,0,0-.339.239.239,0,0,0-.339,0l-2.46,2.46v-2.77a.239.239,0,0,0-.239-.239.243.243,0,0,0-.239.239v2.77l-2.455-2.474a.239.239,0,0,0-.339,0,.244.244,0,0,0,0,.339l2.46,2.455h-2.77a.243.243,0,0,0-.239.239.239.239,0,0,0,.239.239h2.77l-2.46,2.46a.244.244,0,0,0,0,.339.248.248,0,0,0,.339,0l2.455-2.46v2.765a.239.239,0,1,0,.478,0v-2.765l2.46,2.46a.248.248,0,0,0,.339,0,.244.244,0,0,0,0-.339l-2.46-2.46h2.765a.232.232,0,1,0,0-.463Z" transform="translate(-213.003 376.679)" fill="#2980b9"/><path d="M857.959,507.558a8.547,8.547,0,0,0-.215-1.715c-.43-1.614-1.4-3.568-2.995-4.055A25.144,25.144,0,0,1,850,499.782c-.287-5.12.888-10.36-.392-15.322a38.974,38.974,0,0,1-1.476-5.411c-.263-2.312.368-4.776-.554-6.906a6.817,6.817,0,0,0-4.036-3.487,21.505,21.505,0,0,0-5.383-.955c-2.293-.186-9.715-1.065-12.3.984h0a2.709,2.709,0,0,0-.478.478h0a1.9,1.9,0,0,0-.153.248l-.024.038a1.947,1.947,0,0,0-.129.31h0a2.447,2.447,0,0,0-.081.358v.86c.034.43.1.86.1,1.285a2.768,2.768,0,0,1-.057.63,4.411,4.411,0,0,1-.793,1.547h0l-.086.124c-.052.076-.105.148-.153.225s-.086.134-.124.2-.076.11-.11.172a2.331,2.331,0,0,0-.124.244c0,.048-.052.091-.072.138a2.366,2.366,0,0,0-.143.4,2.667,2.667,0,0,0-.029,1.271,4.727,4.727,0,0,0,.654,1.5c.119.2.248.387.382.578l.334.454a10.3,10.3,0,0,0-.1,1.337,9.881,9.881,0,0,0,3.772,7.765,29.249,29.249,0,0,1-.061,6.062c-.043.42-.1.845-.153,1.266s-.1.7-.158,1.046a4.85,4.85,0,0,1-2.087-.158,9.864,9.864,0,0,0-.955-.368c-1.39-.349-2.808,1.036-4.184.616a.561.561,0,0,1-.062.191,1.873,1.873,0,0,0-.955-.282,3.483,3.483,0,0,1-2.073-1.189l-1.82-1.715a2,2,0,0,1-.315-.353,2.48,2.48,0,0,1-.22-.587,6.771,6.771,0,0,0-1.763-2.527,1.194,1.194,0,0,0-.521-.377.8.8,0,0,0-.239,0,2.081,2.081,0,0,0-.158-.191,4.481,4.481,0,0,0-.4-.4c-.869-.8-.955-1.49-1.71-2.388a22.965,22.965,0,0,1-1.786-2.7c-.062-.5-.148-1.017-.253-1.538a19.793,19.793,0,0,0-1.046-3.487l-.955-2.116-.11.11c-.693-1.032-1.433-1.6-2.1-1.462-1.113.229-1.662,2.388-1.485,5.211l.382,2.866a.889.889,0,0,0,.052.215,5.29,5.29,0,0,0-.1,1.032c0,.4.373.7.568,1.056a2.985,2.985,0,0,1,.478,1.629c-.024.205-.086.4-.1.6a2.317,2.317,0,0,0,.449,1.242L807,494.17l.478.841.029.038a2.038,2.038,0,0,0,.64.736,8.746,8.746,0,0,0,.788,2.9c.081.181.172.353.267.525a16.9,16.9,0,0,0,2.254,2.928l1.137,1.275c1.123,1.251,2.245,2.507,3.463,3.663a4.639,4.639,0,0,0,1.548,1.084,1.753,1.753,0,0,0,1.739-.253v1.777a1,1,0,0,1,.755,1.571,39.391,39.391,0,0,1-3.534,7.479,15.924,15.924,0,0,1,2.961,2.259,13.327,13.327,0,0,1,1.543,2.087c.043.354.076.7.1,1.051.353,5.693-1.848,11.343-3.821,16.769a13.066,13.066,0,0,0-1.142,4.748,9.3,9.3,0,0,0-1.07.769,7.083,7.083,0,0,1,.2,3.028,5.365,5.365,0,0,1-.4,1.91,13.432,13.432,0,0,1-.688,1.228c-1.237,2.183-1.509,4.776-1.758,7.269-.148,1.5.435,3.343-.248,4.69a19.187,19.187,0,0,0-2.388,7.346,7.357,7.357,0,0,1-.22,1.715c-.148.478-.411.884-.544,1.352a5.784,5.784,0,0,0-.1,1.911,18.282,18.282,0,0,1-1,6.739c-.6,1.705-1.256,3.53-.788,5.282a7.446,7.446,0,0,0-2.02,4.437,6.991,6.991,0,0,1-.153,1.266,6.156,6.156,0,0,1-.573,1.218,10.66,10.66,0,0,0-1.3,5.732,15.943,15.943,0,0,0-2.574,6.725c-.425,2.383-.611,4.81-1.156,7.164-.726,3.114-2.039,6.262-2.3,9.452-1.547.989-2.216,2.9-2.512,4.714a20.98,20.98,0,0,1-1.1,5.383c-.392.869-.955,1.648-1.328,2.536a11.64,11.64,0,0,0-.573,2.183,8.517,8.517,0,0,0-.148,3.582,5.4,5.4,0,0,1-1.4,1.065c.076-.3.138-.592.191-.893-1.232,1.118-3.468.726-4.451,2.068a2.016,2.016,0,0,0,.478,2.765,3.822,3.822,0,0,0,.989.425c2.388.764,4.843,1.533,7.3,1.127a2.179,2.179,0,0,0,.826-.263,2.66,2.66,0,0,0,.769-.888c.368-.583.736-1.165,1.1-1.748a22.7,22.7,0,0,0,2.68.626c.091.764.158,1.528.191,2.293.478.1,1.118.124,1.342-.32a1.161,1.161,0,0,0,.081-.53c0-.339.048-.788.076-1.247h.1a9.074,9.074,0,0,0,4.227-.855c-.511-4.232,1.175-8.368,2.636-12.37,1.543-4.213,2.866-8.5,4.2-12.791.955-3.018,2.011-5.942,2.947-8.965q1.767-5.731,3.549-11.463c.516-1.681,1.036-3.343,1.629-5.015a78.148,78.148,0,0,1,4.427-9.853c.478-.9.955-1.8,1.347-2.732.478-1.141.817-2.336,1.2-3.515a54.465,54.465,0,0,1,3-7.059c.033-.062.057-.119.091-.177.387,1.581.774,3.186,1.032,4.776a18.148,18.148,0,0,1,.081,5.9,19.458,19.458,0,0,0-.611,4c.072,1.868,1.07,3.563,1.562,5.364a20.4,20.4,0,0,1,.535,4.108c.134,2.149,1.3,4.561.478,6.553-2.555,6.309-1.318,13.435-2.775,20.06-.75,3.4-3.047,6.6-2.866,10.073q.191,3.7.65,7.384a7.029,7.029,0,0,0,.6,2.24,8.225,8.225,0,0,0,.654,1.07c-.21.081-.387.3-.54.75a2.947,2.947,0,0,0,1.06,3.343,4.642,4.642,0,0,0,1.38.478,7.267,7.267,0,0,0,2,.277,4.668,4.668,0,0,0,.626-.076,22.816,22.816,0,0,0,2.259.812,4.881,4.881,0,0,0,.062.587.73.73,0,0,0,.248.54.745.745,0,0,0,.382.067h2.594v-.65a2.135,2.135,0,0,0,1.648-.535,2.549,2.549,0,0,0,.478-.993q1.06-3.6,2.106-7.2a23.014,23.014,0,0,0,1.027-8.215c-.922-8.8,1.1-17.634.444-26.46a63.384,63.384,0,0,1,.812-15.876c.215-1.184.478-2.388.573-3.568.21-2.226-.048-4.475.11-6.687.053-.774.158-1.543.253-2.312a111.018,111.018,0,0,0,1.027-14.4,45.357,45.357,0,0,0-.3-4.776,2.728,2.728,0,0,0,1.3-.764,3.249,3.249,0,0,0,.31-2.039,14.785,14.785,0,0,1,1.285-4.881,57.987,57.987,0,0,0,1.805-6.715,23.446,23.446,0,0,0,.8-5.612q0-.287-.029-.573a1.479,1.479,0,0,0,.439-.478,2.772,2.772,0,0,0,.229-.884c.172-1.218.349-2.441.521-3.663q.191-1.314.377-2.622l1.519-10.6c.129-.922.263-1.839.392-2.756l.4-2.742c.043-.325.091-.65.124-.955C859.2,512.372,858.083,509.774,857.959,507.558Zm-12.671,39.681a8.73,8.73,0,0,1-.955-4.15h-.053a2.13,2.13,0,0,0-.062-1.347c-.148-.349-.406-.645-.563-.993a3.636,3.636,0,0,1-.258-1.337,36.461,36.461,0,0,1,.683-8.664c.062-.334.129-.673.191-1.008a2.5,2.5,0,0,0,.544-.425,3.874,3.874,0,0,0,.616-.955c.54-1.084,1.032-2.187,1.485-3.31.148-.363.363-.783.731-.874-.077,2.794.21,5.646-.927,8.167a5.17,5.17,0,0,0-.478,1.29c-.105.712.191,1.433.086,2.14-.053.368-.21.707-.272,1.07a1.046,1.046,0,0,0,.277,1.013.837.837,0,0,0,.205.105c-.029.191-.052.387-.072.573-.038.392-.057.759-.081.989a30.818,30.818,0,0,0-.129,3.515c0,1.266.048,2.531.029,3.821a2.594,2.594,0,0,1-.181,1.084,1.886,1.886,0,0,1-.363.478A12.421,12.421,0,0,0,845.288,547.239Z" transform="translate(-225.365 353.446)" fill="url(#a)"/><ellipse cx="2.694" cy="7.628" rx="2.694" ry="7.628" transform="matrix(0.98, -0.201, 0.201, 0.98, 576.522, 830.862)" fill="#fbbebe"/><path d="M878.237,837.706a2.892,2.892,0,0,0,1.06,3.31,4.72,4.72,0,0,0,1.371.478,7.231,7.231,0,0,0,1.992.272c.826-.038,1.619-.363,2.445-.478a.383.383,0,0,1,.282.038.406.406,0,0,1,.105.334,12.6,12.6,0,0,0,.1,1.4.721.721,0,0,0,.248.54.746.746,0,0,0,.382.067h2.589a25.25,25.25,0,0,0-.74-6.754,1.511,1.511,0,0,0-.191-.478,1.582,1.582,0,0,0-.826-.478,4.62,4.62,0,0,0-2-.349,5.863,5.863,0,0,0-2.245,1.1,3.421,3.421,0,0,1-2.546.616C879.4,837.1,878.682,836.378,878.237,837.706Z" transform="translate(-273.761 161.077)" fill="#3f3d56"/><path d="M795.313,834.536a7.164,7.164,0,0,1-2.612,1.777l-.439.21a.305.305,0,0,0-.148.119.258.258,0,0,0,.048.215,3.09,3.09,0,0,0,3.506,1.275,1.858,1.858,0,0,0,.769-.4,2.522,2.522,0,0,0,.592-1.538,3.148,3.148,0,0,0-.072-1.762C796.292,832.936,796.049,833.615,795.313,834.536Z" transform="translate(-228.845 162.15)" fill="#fbbebe"/><path d="M802.039,840.722a1.16,1.16,0,0,1-.081.53c-.224.439-.85.415-1.337.32a32.135,32.135,0,0,0-.587-4.824c-.927-.043-1.6.836-2.092,1.624l-1.28,2.03a2.647,2.647,0,0,1-.764.888,2.267,2.267,0,0,1-.826.263c-2.445.406-4.915-.363-7.274-1.127a3.844,3.844,0,0,1-.989-.42,2.02,2.02,0,0,1-.478-2.761c.989-1.337,3.21-.955,4.442-2.063a11.116,11.116,0,0,1-.63,2.278c1.648-.248,2.756-1.758,4.084-2.765a2.513,2.513,0,0,1,1.165-.554,2.566,2.566,0,0,1,.955.1,11.206,11.206,0,0,1,4.2,2.068,4.533,4.533,0,0,1,1.5,1.567A11.6,11.6,0,0,1,802.039,840.722Z" transform="translate(-225.646 161.849)" fill="#3f3d56"/><circle cx="9.868" cy="9.868" r="9.868" transform="translate(599.38 825.25)" fill="#fbbebe"/><path d="M917.9,615.909a23.4,23.4,0,0,1-.8,5.583,57.626,57.626,0,0,1-1.805,6.687,14.712,14.712,0,0,0-1.275,4.872,3.239,3.239,0,0,1-.315,2.034,2.971,2.971,0,0,1-1.395.8,1.743,1.743,0,0,0-1.175,1.046,7.38,7.38,0,0,1-.994-2.188q-1.285-3.935-2.388-7.914a1.027,1.027,0,0,1,.067-.955,1.184,1.184,0,0,1,.416-.234,4.3,4.3,0,0,0,1.323-.85,1.932,1.932,0,0,0,.439-.568,2.572,2.572,0,0,0,.186-1.079c0-1.266,0-2.527-.033-3.792a31.65,31.65,0,0,1,.134-3.5c0-.229.043-.6.081-.989.072-.75.215-1.619.621-1.91.607-.406,2.421.139,3.109.234,1.184.162,2.388.353,3.544.578A9.462,9.462,0,0,1,917.9,615.909Z" transform="translate(-289.212 277.469)" fill="#3f3d56"/><path d="M833.851,509.648c-.382.764-1.3,1.132-2.006,1.614l-2.422,1.662a1.614,1.614,0,0,1-1.2.411,1.577,1.577,0,0,1-.893-.836.153.153,0,0,0,0-.038l-.5-.841-2.388-4a2.278,2.278,0,0,1-.444-1.232c0-.205.072-.4.091-.6a2.891,2.891,0,0,0-.478-1.624c-.191-.358-.573-.654-.564-1.056a3.816,3.816,0,0,1,.267-1.543,3.123,3.123,0,0,1,1.046-1.118c.224-.162.454-.315.693-.478a1.363,1.363,0,0,1,.416-.191c.4-.081.788.248,1.189.263,1.724,1.156,2.388,3.343,3.745,4.919.764.9.841,1.586,1.705,2.388.139.124.272.258.4.4a2.77,2.77,0,0,1,.43.621C833.1,508.774,834.047,509.257,833.851,509.648Z" transform="translate(-245.007 336.517)" fill="#3f3d56"/><path d="M876.265,510.058a8.893,8.893,0,0,1,1.06,4.81,3.006,3.006,0,0,1-.415,1.266c-.688,1.056-2.13,1.247-3.386,1.309a2,2,0,0,0-1.471.478,1.337,1.337,0,0,0,.091,1.633,3.688,3.688,0,0,0,1.462.955,12.94,12.94,0,0,0,6.29,1.395c1-.1,1.977-.387,2.976-.535a31.255,31.255,0,0,1,3.276-.182c1.3-.048,2.594-.177,3.888-.306l3.429-.339a.765.765,0,0,0,.511-.186c.253-.3-.072-.731-.387-.955-1.82-1.347-4.136-2.273-5.173-4.3a25.287,25.287,0,0,1-.979-3.124,26.257,26.257,0,0,1-1.137-3.014,19.982,19.982,0,0,1-.158-2.78,3.73,3.73,0,0,0-.955-2.541,3.982,3.982,0,0,0-2.6-.836,8.411,8.411,0,0,0-6.333,2.054c-.435.435-.807.955-1.256,1.347s-1.06.506-.764,1.022.879.836,1.194,1.29A10.974,10.974,0,0,1,876.265,510.058Z" transform="translate(-270.484 334.932)" fill="#fbbebe"/><path d="M884.409,533.661a54.265,54.265,0,0,1-2.923,10.761,40.536,40.536,0,0,0-1.719,4.824c-.368,1.481-.3,3.066-.635,4.552-.42,1.848-.841,3.7-1.18,5.564a36.489,36.489,0,0,0-.678,8.645,3.616,3.616,0,0,0,.258,1.333c.158.344.411.64.559.993a2.388,2.388,0,0,1-.134,1.91,5.528,5.528,0,0,1-.984,1.49c-4.451,1.328-9.213.893-13.851,1.175-4.275.258-8.6,1.137-12.81.406-.478-1.91.32-3.912,1-5.774,1.982-5.411,4.174-11.047,3.821-16.717a17.265,17.265,0,0,0-.224-1.973,26.149,26.149,0,0,1,1.271-12.069,20.718,20.718,0,0,0,.544-7.537,13.755,13.755,0,0,1-.033-2.469,4.341,4.341,0,0,1,.9-2.307c0-.033.043-.067.067-.1a.655.655,0,0,1,.358,0h0a.305.305,0,0,0,.239,0l.052-.034a.12.12,0,0,1,.138,0c.11.067.172.3.411.339a9.5,9.5,0,0,0,1.065.1,5.727,5.727,0,0,1,1.271.182h.057a3.73,3.73,0,0,0,1.853-.158,4.923,4.923,0,0,0,1.137-.439c.105-.115.764-.22.9-.3.435-.263.339-1.495.43-2a5.51,5.51,0,0,1,.358-1.481,2.522,2.522,0,0,1,2.044-1.189,10.887,10.887,0,0,1,2.45.22c1.782.253,3.606.21,5.354.621a3.988,3.988,0,0,0,2.646.115c.22.053.253.244.253.478a3.055,3.055,0,0,1-.134.654c-.306,1.318.731,2.531,1.686,3.487a5.4,5.4,0,0,0,1.409,1.122c.478.22.955.31,1.433.549a2.608,2.608,0,0,1,.955.874,3.65,3.65,0,0,1,.545,1.39,8.313,8.313,0,0,1-.158,2.765Z" transform="translate(-259.175 325.223)" fill="#3f3d56"/><path d="M889.324,539.051a54.264,54.264,0,0,1-2.923,10.761,40.535,40.535,0,0,0-1.719,4.824c-.368,1.481-.3,3.066-.635,4.552-.42,1.848-.841,3.7-1.18,5.564-.1.057-.205.11-.31.158a7.325,7.325,0,0,1-1.872.6,11.459,11.459,0,0,1-3.5-.115l-6.816-.912c-2.722-.368-5.622-.812-7.642-2.656a16.311,16.311,0,0,1-2.665-3.639,17.321,17.321,0,0,0-.224-1.973,26.149,26.149,0,0,1,1.27-12.069,20.709,20.709,0,0,0,.545-7.537,13.767,13.767,0,0,1-.033-2.469,4.341,4.341,0,0,1,.9-2.307,3.394,3.394,0,0,1,.425-.1h0a2.112,2.112,0,0,1,.292-.038h.138a2.087,2.087,0,0,1,.478.057,8.657,8.657,0,0,1,.955.368h.057a3.657,3.657,0,0,0,1.27.182c.631,0,1.28-.1,1.911-.143a3.526,3.526,0,0,1,2.264.406,13.588,13.588,0,0,1,1.261,1.151,5.415,5.415,0,0,0,1.59.865,16.9,16.9,0,0,0,12.714-.268,2.489,2.489,0,0,1,1.275-.325,2.387,2.387,0,0,1,.917.392c.286.167.568.33.86.478a3.65,3.65,0,0,1,.544,1.39A8.308,8.308,0,0,1,889.324,539.051Z" transform="translate(-264.09 319.833)" opacity="0.1"/><path d="M888.973,534.886a25.5,25.5,0,0,1-5.445-2.388,2.438,2.438,0,0,0-.917-.392,2.562,2.562,0,0,0-1.28.325,16.893,16.893,0,0,1-12.709.267,5.525,5.525,0,0,1-1.59-.865,14.275,14.275,0,0,0-1.261-1.151c-1.571-1.017-3.745.177-5.5-.478a9.727,9.727,0,0,0-.955-.368c-1.39-.349-2.8,1.036-4.17.616a23.236,23.236,0,0,0-1.122,4.26,46.454,46.454,0,0,0-.31,5.025c0,1.008-.048,2.015,0,3.023a.992.992,0,0,1,.755,1.567,39.155,39.155,0,0,1-3.525,7.456,16.194,16.194,0,0,1,2.952,2.254c1.672,1.767,2.493,4.246,4.3,5.879,2.035,1.839,4.934,2.288,7.642,2.651l6.816.912a11.652,11.652,0,0,0,3.5.119,7.374,7.374,0,0,0,1.868-.607,3.344,3.344,0,0,0,1.041-.688,3.817,3.817,0,0,0,.616-.955c.54-1.079,1.032-2.183,1.485-3.3.158-.4.4-.86.826-.893,2.531-2.283,4.919-4.623,7.451-6.906a16.512,16.512,0,0,0,2.718-2.866c1.256-1.858.115-4.49,0-6.734a8.5,8.5,0,0,0-.215-1.705C891.528,537.317,890.563,535.369,888.973,534.886Z" transform="translate(-259.579 320.836)" fill="#2980b9"/><path d="M838.536,518.28c-.382.764-1.3,1.132-2.006,1.614l-2.422,1.662a1.614,1.614,0,0,1-1.2.411,1.576,1.576,0,0,1-.893-.836v-.344a3.2,3.2,0,0,1,.153-1.141,3.558,3.558,0,0,1,1.07-1.376,8.759,8.759,0,0,1,3.138-1.91,1.074,1.074,0,0,1,.573-.057.754.754,0,0,1,.21.091,2.775,2.775,0,0,1,.43.621C837.781,517.406,838.731,517.889,838.536,518.28Z" transform="translate(-249.691 327.885)" opacity="0.1"/><path d="M844.886,523.652a3.479,3.479,0,0,1-2.068-1.185l-1.81-1.681a1.688,1.688,0,0,1-.315-.354,2.473,2.473,0,0,1-.22-.587,6.739,6.739,0,0,0-1.758-2.522,1.145,1.145,0,0,0-.521-.372,1.046,1.046,0,0,0-.578.057,8.736,8.736,0,0,0-3.138,1.91,3.569,3.569,0,0,0-1.07,1.376,3.178,3.178,0,0,0-.153,1.141,8.771,8.771,0,0,0,.831,3.649c.081.177.172.353.268.525a16.539,16.539,0,0,0,2.245,2.918l1.137,1.271c1.118,1.251,2.235,2.5,3.448,3.654a4.556,4.556,0,0,0,1.547,1.079,1.729,1.729,0,0,0,1.777-.287,2.57,2.57,0,0,0,.506-.908,17.866,17.866,0,0,0,1.476-5.956,22.523,22.523,0,0,0-.105-2.469C846.314,524.044,845.7,523.7,844.886,523.652Z" transform="translate(-250.339 327.547)" fill="#2980b9"/><path d="M855.5,646.928a110.382,110.382,0,0,1-1.022,14.362c-.1.769-.2,1.538-.253,2.307-.158,2.23.1,4.471-.11,6.687-.11,1.2-.358,2.388-.568,3.558a63.272,63.272,0,0,0-.812,15.833c.659,8.8-1.361,17.61-.444,26.388a21.333,21.333,0,0,1-.282,5.106,21.66,21.66,0,0,1-.74,3.085q-1.046,3.587-2.1,7.164a2.482,2.482,0,0,1-.478.993,2.264,2.264,0,0,1-1.791.53c-2.756-.086-5.349-1.275-7.852-2.436a2.733,2.733,0,0,1-.788-.478c-.521-.54-.478-1.39-.707-2.1a20.02,20.02,0,0,0-1.2-2.111,6.891,6.891,0,0,1-.521-2.173q-.478-3.668-.65-7.365c-.182-3.468,2.111-6.658,2.866-10.03,1.433-6.629.22-13.736,2.765-20.027.8-1.987-.363-4.394-.478-6.534a20.707,20.707,0,0,0-.535-4.1c-.478-1.8-1.485-3.487-1.557-5.349a19.655,19.655,0,0,1,.607-3.988,17.922,17.922,0,0,0-.081-5.889c-.253-1.6-.64-3.21-1.027-4.776l-.086.177a53.969,53.969,0,0,0-2.995,7.045c-.382,1.17-.716,2.364-1.194,3.5-.392.955-.874,1.829-1.347,2.727a78.318,78.318,0,0,0-4.418,9.815c-.592,1.653-1.113,3.343-1.629,5l-3.539,11.463c-.955,3.014-2,5.927-2.937,8.936-1.323,4.3-2.646,8.559-4.184,12.762-1.433,3.988-3.138,8.12-2.627,12.332a9.074,9.074,0,0,1-4.217.855,24.691,24.691,0,0,1-7.164-1.739,5.569,5.569,0,0,1-2.474-1.471c-1.06-1.294-.8-3.19-.478-4.838a11.694,11.694,0,0,1,.573-2.178c.363-.879.955-1.657,1.328-2.527a21.2,21.2,0,0,0,1.094-5.364c.3-1.81.955-3.721,2.5-4.7.263-3.181,1.571-6.319,2.293-9.428.545-2.355.726-4.776,1.156-7.164a15.734,15.734,0,0,1,2.565-6.711,10.636,10.636,0,0,1,1.3-5.731,6.271,6.271,0,0,0,.568-1.218,7.013,7.013,0,0,0,.153-1.261A7.455,7.455,0,0,1,814,671.439c-.478-1.743.186-3.563.783-5.254a18.253,18.253,0,0,0,1-6.72,5.888,5.888,0,0,1,.091-1.91c.134-.478.4-.884.549-1.342a7.628,7.628,0,0,0,.215-1.715,19.831,19.831,0,0,1,2.388-7.327c.688-1.347.105-3.176.248-4.676.248-2.493.521-5.072,1.758-7.245.229-.411.478-.8.683-1.227a5.314,5.314,0,0,0,.4-1.911,7.033,7.033,0,0,0-.2-3.018c2.555-2.125,6.042-2.723,9.366-2.866s6.687.158,9.939-.549c.955-.215,1.91-.511,2.918-.654a18.879,18.879,0,0,1,6.868.7,8.182,8.182,0,0,0,.955,4.141,44.45,44.45,0,0,1,3.539,17.061Z" transform="translate(-232.012 271.138)" fill="#33313f"/><path d="M887.441,673.29l-5.488,12.342c-.253-1.6-.64-3.21-1.027-4.776l-.086.177v-.258l2.99-6.577Z" transform="translate(-275.198 245.869)" opacity="0.1"/><path d="M920.816,615.909a2.063,2.063,0,0,1-1.089.406,5.3,5.3,0,0,1-1.786-.244l-4.3-1.075a2.1,2.1,0,0,1-.392-.138c.072-.75.215-1.619.621-1.91.606-.406,2.422.138,3.109.234,1.184.162,2.388.353,3.544.578A9.467,9.467,0,0,1,920.816,615.909Z" transform="translate(-292.128 277.469)" opacity="0.1"/><path d="M923.963,558.142c.091.4.22.788.3,1.189a9.072,9.072,0,0,1-.1,2.956l-.392,2.732-.392,2.746-1.514,10.57-.372,2.617-.525,3.654a2.629,2.629,0,0,1-.229.879,1.83,1.83,0,0,1-1.495.884,5.416,5.416,0,0,1-1.786-.244l-4.3-1.079a1.347,1.347,0,0,1-.526-.215,1.037,1.037,0,0,1-.277-1.008c.062-.363.22-.7.272-1.065.105-.707-.191-1.433-.086-2.135a5.31,5.31,0,0,1,.478-1.285c1.433-3.167.6-6.863,1.089-10.3a15.62,15.62,0,0,1,3.315-7.375,21.166,21.166,0,0,1,3.659-3.592,7.367,7.367,0,0,1,2.058-1.433C924,556.456,923.819,557.541,923.963,558.142Z" transform="translate(-291.641 306.817)" fill="#2980b9"/><path d="M863.716,471.018c-.315,1,.177,2.106-.048,3.128-.244,1.127-1.3,1.91-1.6,3.042-.478,1.724.984,3.3,2.054,4.728,3.964,5.321,3.444,12.686,2.087,19.176a99.027,99.027,0,0,1-4.513,15.284,11.713,11.713,0,0,1-2.431,4.265c2.2-.63,4.533-1.266,6.734-.654,2.789.774,5.2,3.482,8.024,2.866,1.7-.377,2.894-1.887,4.423-2.722,2.866-1.543,6.319-.573,9.514-.077a3.735,3.735,0,0,0,2.078-.105,3.452,3.452,0,0,0,1.261-1.161,11.779,11.779,0,0,0,2.455-6.352,8.148,8.148,0,0,0-2.345-6.271,13.421,13.421,0,0,1-2.011-1.91,5.932,5.932,0,0,1-.788-2.894c-.377-5.254.9-10.617-.416-15.7a38.739,38.739,0,0,1-1.466-5.4c-.263-2.307.363-4.776-.554-6.887a6.755,6.755,0,0,0-4.026-3.477,22.062,22.062,0,0,0-5.368-.955C874.157,468.726,864.81,467.6,863.716,471.018Z" transform="translate(-263.925 352.799)" fill="#33313f"/><g transform="translate(595.335 822.723)" opacity="0.1"><path d="M868.89,508.86a98.816,98.816,0,0,1-4.49,15.222c.33-.654.607-1.342.869-2.025a98.491,98.491,0,0,0,4.514-15.284c1.361-6.5,1.882-13.851-2.082-19.176-.955-1.27-2.183-2.646-2.14-4.136a5.09,5.09,0,0,0-.812,1.5c-.478,1.724.984,3.3,2.054,4.728C870.767,495,870.246,502.369,868.89,508.86Z" transform="translate(-861.945 -477.69)"/><path d="M868.473,475.12a4.646,4.646,0,0,0,.841-1.61,8.184,8.184,0,0,0-.057-2.13,2.3,2.3,0,0,0-.793,1.094A9.448,9.448,0,0,0,868.473,475.12Z" transform="translate(-864.007 -471.38)"/><path d="M892.192,567.457a3.439,3.439,0,0,1-1.261,1.156,3.648,3.648,0,0,1-2.078.105c-3.2-.478-6.687-1.461-9.514.081-1.533.831-2.723,2.34-4.428,2.722-2.823.63-5.23-2.078-8.019-2.866a11.2,11.2,0,0,0-6.051.478,8.345,8.345,0,0,1-1.581,2.283c2.2-.63,4.533-1.266,6.734-.654,2.789.774,5.2,3.482,8.024,2.866,1.7-.377,2.894-1.887,4.423-2.722,2.866-1.543,6.319-.573,9.514-.076a3.735,3.735,0,0,0,2.078-.105,3.453,3.453,0,0,0,1.261-1.161,12.841,12.841,0,0,0,1.977-3.783,13.893,13.893,0,0,1-1.08,1.677Z" transform="translate(-859.26 -520.693)"/></g></g></svg>